<svg width="153" height="25" viewBox="0 0 153 25" fill="none" xmlns="http://www.w3.org/2000/svg">
<path d="M3.27489 15.5623C2.42496 14.4581 2 13.906 2 12.2667C2 10.6273 2.42496 10.0752 3.27489 8.971C4.97196 6.76623 7.81811 4.26667 12 4.26667C16.1819 4.26667 19.028 6.76622 20.7251 8.971C21.575 10.0752 22 10.6273 22 12.2667C22 13.906 21.575 14.4581 20.7251 15.5623C19.028 17.7671 16.1819 20.2667 12 20.2667C7.81811 20.2667 4.97196 17.7671 3.27489 15.5623Z" stroke="#AFB2BF" stroke-width="1.5"/>
<path d="M15 12.2667C15 13.9235 13.6569 15.2667 12 15.2667C10.3431 15.2667 9 13.9235 9 12.2667C9 10.6098 10.3431 9.26667 12 9.26667C13.6569 9.26667 15 10.6098 15 12.2667Z" stroke="#AFB2BF" stroke-width="1.5"/>
<path d="M34.0543 6.90267C34.6943 6.90267 35.2543 7.03067 35.7343 7.28667C36.2249 7.54267 36.6036 7.89467 36.8703 8.34267C37.1369 8.78 37.2703 9.276 37.2703 9.83067C37.2703 10.4813 37.1209 11.1053 36.8223 11.7027C36.5343 12.3 36.0863 12.9453 35.4783 13.6387C34.8703 14.332 33.9476 15.2973 32.7103 16.5347H37.5263L37.3503 17.7667H31.0303V16.5987C32.4596 15.116 33.4729 14.0333 34.0703 13.3507C34.6676 12.6573 35.0943 12.0547 35.3503 11.5427C35.6063 11.0307 35.7343 10.4813 35.7343 9.89467C35.7343 9.34 35.5743 8.908 35.2543 8.59867C34.9343 8.27867 34.5076 8.11867 33.9743 8.11867C33.5369 8.11867 33.1529 8.20933 32.8223 8.39067C32.4916 8.572 32.1396 8.87067 31.7663 9.28667L30.8063 8.51867C31.2436 7.97467 31.7289 7.56933 32.2623 7.30267C32.7956 7.036 33.3929 6.90267 34.0543 6.90267ZM49.2825 8.21467H45.1065V11.3667C45.6505 11.0893 46.2212 10.9507 46.8185 10.9507C47.7358 10.9507 48.4718 11.2547 49.0265 11.8627C49.5812 12.46 49.8585 13.2867 49.8585 14.3427C49.8585 15.0467 49.7038 15.676 49.3945 16.2307C49.0852 16.7747 48.6478 17.2013 48.0825 17.5107C47.5278 17.8093 46.8825 17.9587 46.1465 17.9587C45.4958 17.9587 44.9145 17.8467 44.4025 17.6227C43.8905 17.388 43.4158 17.0467 42.9785 16.5987L43.8425 15.7507C44.1838 16.092 44.5358 16.348 44.8985 16.5187C45.2612 16.6787 45.6718 16.7587 46.1305 16.7587C46.8132 16.7587 47.3465 16.5453 47.7305 16.1187C48.1252 15.692 48.3225 15.0893 48.3225 14.3107C48.3225 13.532 48.1465 12.9667 47.7945 12.6147C47.4425 12.2627 46.9678 12.0867 46.3705 12.0867C46.0932 12.0867 45.8372 12.1187 45.6025 12.1827C45.3678 12.236 45.1172 12.3267 44.8505 12.4547H43.6985V7.06267H49.4905L49.2825 8.21467ZM56.4181 12.0227C57.9221 12.6307 58.6741 13.5907 58.6741 14.9027C58.6741 15.4893 58.5141 16.0173 58.1941 16.4867C57.8848 16.9453 57.4475 17.308 56.8821 17.5747C56.3168 17.8307 55.6768 17.9587 54.9621 17.9587C54.2368 17.9587 53.5968 17.8307 53.0421 17.5747C52.4875 17.3187 52.0555 16.9613 51.7461 16.5027C51.4475 16.044 51.2981 15.5213 51.2981 14.9347C51.2981 14.2733 51.4741 13.7187 51.8261 13.2707C52.1888 12.8227 52.7168 12.4493 53.4101 12.1507C52.8448 11.8627 52.4235 11.516 52.1461 11.1107C51.8795 10.6947 51.7461 10.2093 51.7461 9.65467C51.7461 9.07867 51.8955 8.58267 52.1941 8.16667C52.5035 7.75067 52.9035 7.436 53.3941 7.22267C53.8955 7.00933 54.4288 6.90267 54.9941 6.90267C55.5488 6.90267 56.0715 7.004 56.5621 7.20667C57.0635 7.40933 57.4688 7.71867 57.7781 8.13467C58.0875 8.54 58.2421 9.03067 58.2421 9.60667C58.2421 10.14 58.0928 10.5987 57.7941 10.9827C57.4955 11.3667 57.0368 11.7133 56.4181 12.0227ZM54.9941 8.00667C54.4395 8.00667 53.9968 8.15067 53.6661 8.43867C53.3461 8.72667 53.1861 9.13733 53.1861 9.67067C53.1861 10.1827 53.3408 10.572 53.6501 10.8387C53.9701 11.1053 54.4768 11.3507 55.1701 11.5747L55.4421 11.6707C55.9221 11.3933 56.2688 11.1 56.4821 10.7907C56.6955 10.4813 56.8021 10.1027 56.8021 9.65467C56.8021 9.15333 56.6421 8.75333 56.3221 8.45467C56.0128 8.156 55.5701 8.00667 54.9941 8.00667ZM54.9781 16.7907C55.6395 16.7907 56.1621 16.62 56.5461 16.2787C56.9408 15.9373 57.1381 15.484 57.1381 14.9187C57.1381 14.5347 57.0635 14.2147 56.9141 13.9587C56.7648 13.692 56.5248 13.4627 56.1941 13.2707C55.8635 13.068 55.3995 12.8653 54.8021 12.6627L54.4021 12.5187C53.8688 12.7747 53.4741 13.1 53.2181 13.4947C52.9621 13.8787 52.8341 14.3587 52.8341 14.9347C52.8341 15.5213 53.0261 15.98 53.4101 16.3107C53.7941 16.6307 54.3168 16.7907 54.9781 16.7907ZM67.4226 13.9587V15.1267H66.0306V17.7667H64.6066V15.1267H60.0306V14.0707L63.2466 6.90267L64.4786 7.41467L61.5826 13.9587H64.6226L64.7506 11.0787H66.0306V13.9587H67.4226ZM78.5886 17.7667V10.5347H75.1326V17.7667H73.6606V9.33467H80.0606V17.7667H78.5886ZM86.9701 9.14267C88.0475 9.14267 88.8368 9.52667 89.3381 10.2947C89.8395 11.0627 90.0901 12.1453 90.0901 13.5427C90.0901 14.8653 89.8021 15.932 89.2261 16.7427C88.6501 17.5533 87.8341 17.9587 86.7781 17.9587C85.8395 17.9587 85.1035 17.6387 84.5701 16.9987V20.9987L83.0981 21.1747V9.33467H84.3621L84.4741 10.4707C84.7835 10.044 85.1568 9.71867 85.5941 9.49467C86.0315 9.26 86.4901 9.14267 86.9701 9.14267ZM86.4261 16.7587C87.8128 16.7587 88.5061 15.6867 88.5061 13.5427C88.5061 11.388 87.8715 10.3107 86.6021 10.3107C86.1861 10.3107 85.8075 10.4333 85.4661 10.6787C85.1248 10.924 84.8261 11.2387 84.5701 11.6227V15.7347C84.7835 16.0653 85.0501 16.3213 85.3701 16.5027C85.6901 16.6733 86.0421 16.7587 86.4261 16.7587ZM95.7661 9.14267C96.9501 9.14267 97.8675 9.53733 98.5181 10.3267C99.1795 11.116 99.5101 12.188 99.5101 13.5427C99.5101 14.4173 99.3608 15.1907 99.0621 15.8627C98.7635 16.524 98.3315 17.0413 97.7661 17.4147C97.2008 17.7773 96.5288 17.9587 95.7501 17.9587C94.5661 17.9587 93.6435 17.564 92.9821 16.7747C92.3208 15.9853 91.9901 14.9133 91.9901 13.5587C91.9901 12.684 92.1395 11.916 92.4381 11.2547C92.7368 10.5827 93.1688 10.0653 93.7341 9.70267C94.2995 9.32933 94.9768 9.14267 95.7661 9.14267ZM95.7661 10.3267C94.3048 10.3267 93.5741 11.404 93.5741 13.5587C93.5741 15.7027 94.2995 16.7747 95.7501 16.7747C97.2008 16.7747 97.9261 15.6973 97.9261 13.5427C97.9261 11.3987 97.2061 10.3267 95.7661 10.3267ZM105.014 9.14267C105.515 9.14267 105.974 9.21733 106.39 9.36667C106.806 9.50533 107.206 9.73467 107.59 10.0547L106.886 10.9827C106.587 10.7693 106.294 10.6147 106.006 10.5187C105.729 10.412 105.419 10.3587 105.078 10.3587C104.395 10.3587 103.862 10.6307 103.478 11.1747C103.105 11.7187 102.918 12.524 102.918 13.5907C102.918 14.6573 103.105 15.4467 103.478 15.9587C103.851 16.46 104.385 16.7107 105.078 16.7107C105.409 16.7107 105.713 16.6627 105.99 16.5667C106.267 16.46 106.577 16.2947 106.918 16.0707L107.59 17.0307C106.822 17.6493 105.963 17.9587 105.014 17.9587C103.873 17.9587 102.971 17.5747 102.31 16.8067C101.659 16.0387 101.334 14.9773 101.334 13.6227C101.334 12.7267 101.483 11.9427 101.782 11.2707C102.081 10.5987 102.502 10.076 103.046 9.70267C103.601 9.32933 104.257 9.14267 105.014 9.14267ZM117.839 17.7667H116.399L116.015 13.7827C115.972 13.3667 115.945 12.908 115.935 12.4067C115.924 11.8947 115.919 11.3453 115.919 10.7587L113.999 16.8387H112.607L110.815 10.7747C110.815 12.1827 110.793 13.18 110.751 13.7667L110.447 17.7667H109.023L109.775 9.33467H111.679L113.327 15.3667L115.135 9.33467H117.071L117.839 17.7667ZM123.485 9.14267C124.669 9.14267 125.586 9.53733 126.237 10.3267C126.898 11.116 127.229 12.188 127.229 13.5427C127.229 14.4173 127.08 15.1907 126.781 15.8627C126.482 16.524 126.05 17.0413 125.485 17.4147C124.92 17.7773 124.248 17.9587 123.469 17.9587C122.285 17.9587 121.362 17.564 120.701 16.7747C120.04 15.9853 119.709 14.9133 119.709 13.5587C119.709 12.684 119.858 11.916 120.157 11.2547C120.456 10.5827 120.888 10.0653 121.453 9.70267C122.018 9.32933 122.696 9.14267 123.485 9.14267ZM123.485 10.3267C122.024 10.3267 121.293 11.404 121.293 13.5587C121.293 15.7027 122.018 16.7747 123.469 16.7747C124.92 16.7747 125.645 15.6973 125.645 13.5427C125.645 11.3987 124.925 10.3267 123.485 10.3267ZM134.95 9.33467L134.774 10.5347H132.07V17.7667H130.598V10.5347H127.814V9.33467H134.95ZM140.345 9.14267C141.422 9.14267 142.212 9.52667 142.713 10.2947C143.214 11.0627 143.465 12.1453 143.465 13.5427C143.465 14.8653 143.177 15.932 142.601 16.7427C142.025 17.5533 141.209 17.9587 140.153 17.9587C139.214 17.9587 138.478 17.6387 137.945 16.9987V20.9987L136.473 21.1747V9.33467H137.737L137.849 10.4707C138.158 10.044 138.532 9.71867 138.969 9.49467C139.406 9.26 139.865 9.14267 140.345 9.14267ZM139.801 16.7587C141.188 16.7587 141.881 15.6867 141.881 13.5427C141.881 11.388 141.246 10.3107 139.977 10.3107C139.561 10.3107 139.182 10.4333 138.841 10.6787C138.5 10.924 138.201 11.2387 137.945 11.6227V15.7347C138.158 16.0653 138.425 16.3213 138.745 16.5027C139.065 16.6733 139.417 16.7587 139.801 16.7587ZM151.497 15.7987C151.497 16.14 151.556 16.396 151.673 16.5667C151.79 16.7267 151.966 16.8493 152.201 16.9347L151.865 17.9587C151.428 17.9053 151.076 17.7827 150.809 17.5907C150.542 17.3987 150.345 17.1 150.217 16.6947C149.652 17.5373 148.814 17.9587 147.705 17.9587C146.873 17.9587 146.217 17.724 145.737 17.2547C145.257 16.7853 145.017 16.172 145.017 15.4147C145.017 14.5187 145.337 13.8307 145.977 13.3507C146.628 12.8707 147.545 12.6307 148.729 12.6307H150.025V12.0067C150.025 11.4093 149.881 10.9827 149.593 10.7267C149.305 10.4707 148.862 10.3427 148.265 10.3427C147.646 10.3427 146.889 10.492 145.993 10.7907L145.625 9.71867C146.67 9.33467 147.641 9.14267 148.537 9.14267C149.529 9.14267 150.27 9.388 150.761 9.87867C151.252 10.3587 151.497 11.0467 151.497 11.9427V15.7987ZM148.041 16.8547C148.884 16.8547 149.545 16.4173 150.025 15.5427V13.6067H148.921C147.364 13.6067 146.585 14.1827 146.585 15.3347C146.585 15.836 146.708 16.2147 146.953 16.4707C147.198 16.7267 147.561 16.8547 148.041 16.8547Z" fill="#AFB2BF"/>
</svg>
