<svg width="117" height="25" viewBox="0 0 117 25" fill="none" xmlns="http://www.w3.org/2000/svg">
<path d="M2 12.2667C2 8.49543 2 6.60981 3.17157 5.43824C4.34315 4.26667 6.22876 4.26667 10 4.26667H14C17.7712 4.26667 19.6569 4.26667 20.8284 5.43824C22 6.60981 22 8.49543 22 12.2667V14.2667C22 18.0379 22 19.9235 20.8284 21.0951C19.6569 22.2667 17.7712 22.2667 14 22.2667H10C6.22876 22.2667 4.34315 22.2667 3.17157 21.0951C2 19.9235 2 18.0379 2 14.2667V12.2667Z" stroke="#AFB2BF" stroke-width="1.5"/>
<path d="M7 4.26667V2.76667" stroke="#AFB2BF" stroke-width="1.5" stroke-linecap="round"/>
<path d="M17 4.26667V2.76667" stroke="#AFB2BF" stroke-width="1.5" stroke-linecap="round"/>
<path d="M2.5 9.26667H21.5" stroke="#AFB2BF" stroke-width="1.5" stroke-linecap="round"/>
<path d="M18 17.2667C18 17.819 17.5523 18.2667 17 18.2667C16.4477 18.2667 16 17.819 16 17.2667C16 16.7144 16.4477 16.2667 17 16.2667C17.5523 16.2667 18 16.7144 18 17.2667Z" fill="#AFB2BF"/>
<path d="M18 13.2667C18 13.819 17.5523 14.2667 17 14.2667C16.4477 14.2667 16 13.819 16 13.2667C16 12.7144 16.4477 12.2667 17 12.2667C17.5523 12.2667 18 12.7144 18 13.2667Z" fill="#AFB2BF"/>
<path d="M13 17.2667C13 17.819 12.5523 18.2667 12 18.2667C11.4477 18.2667 11 17.819 11 17.2667C11 16.7144 11.4477 16.2667 12 16.2667C12.5523 16.2667 13 16.7144 13 17.2667Z" fill="#AFB2BF"/>
<path d="M13 13.2667C13 13.819 12.5523 14.2667 12 14.2667C11.4477 14.2667 11 13.819 11 13.2667C11 12.7144 11.4477 12.2667 12 12.2667C12.5523 12.2667 13 12.7144 13 13.2667Z" fill="#AFB2BF"/>
<path d="M8 17.2667C8 17.819 7.55228 18.2667 7 18.2667C6.44772 18.2667 6 17.819 6 17.2667C6 16.7144 6.44772 16.2667 7 16.2667C7.55228 16.2667 8 16.7144 8 17.2667Z" fill="#AFB2BF"/>
<path d="M8 13.2667C8 13.819 7.55228 14.2667 7 14.2667C6.44772 14.2667 6 13.819 6 13.2667C6 12.7144 6.44772 12.2667 7 12.2667C7.55228 12.2667 8 12.7144 8 13.2667Z" fill="#AFB2BF"/>
<path d="M34.8078 6.90267C35.9918 6.90267 36.8824 7.37733 37.4798 8.32667C38.0878 9.26533 38.3918 10.6307 38.3918 12.4227C38.3918 14.2147 38.0878 15.5853 37.4798 16.5347C36.8824 17.484 35.9918 17.9587 34.8078 17.9587C33.6238 17.9587 32.7278 17.484 32.1198 16.5347C31.5224 15.5853 31.2238 14.2147 31.2238 12.4227C31.2238 10.6307 31.5224 9.26533 32.1198 8.32667C32.7278 7.37733 33.6238 6.90267 34.8078 6.90267ZM34.8078 8.07067C34.1144 8.07067 33.5971 8.412 33.2558 9.09467C32.9251 9.77733 32.7598 10.8867 32.7598 12.4227C32.7598 13.9587 32.9251 15.0733 33.2558 15.7667C33.5971 16.4493 34.1144 16.7907 34.8078 16.7907C35.4904 16.7907 36.0024 16.4493 36.3438 15.7667C36.6851 15.0733 36.8558 13.9587 36.8558 12.4227C36.8558 10.8973 36.6851 9.79333 36.3438 9.11067C36.0024 8.41733 35.4904 8.07067 34.8078 8.07067ZM44.1936 10.7267C44.7376 10.7267 45.2336 10.8547 45.6816 11.1107C46.1296 11.3667 46.487 11.7507 46.7536 12.2627C47.0203 12.7747 47.1536 13.3987 47.1536 14.1347C47.1536 14.892 46.999 15.564 46.6896 16.1507C46.391 16.7267 45.9803 17.1747 45.4576 17.4947C44.9456 17.804 44.375 17.9587 43.7456 17.9587C42.4976 17.9587 41.5856 17.5 41.0096 16.5827C40.4336 15.6547 40.1456 14.3747 40.1456 12.7427C40.1456 11.58 40.3056 10.5613 40.6256 9.68667C40.9563 8.80133 41.4256 8.11867 42.0336 7.63867C42.6416 7.148 43.3616 6.90267 44.1936 6.90267C45.0043 6.90267 45.7403 7.12133 46.4016 7.55867L45.8256 8.53467C45.3243 8.22533 44.775 8.07067 44.1776 8.07067C43.4096 8.07067 42.8016 8.43867 42.3536 9.17467C41.9056 9.91067 41.6603 10.8973 41.6176 12.1347C42.279 11.196 43.1376 10.7267 44.1936 10.7267ZM43.7456 16.7907C44.3643 16.7907 44.839 16.556 45.1696 16.0867C45.5003 15.6173 45.6656 14.9827 45.6656 14.1827C45.6656 12.6573 45.0896 11.8947 43.9376 11.8947C43.4683 11.8947 43.0363 12.028 42.6416 12.2947C42.247 12.5507 41.911 12.908 41.6336 13.3667C41.6656 14.54 41.847 15.404 42.1776 15.9587C42.519 16.5133 43.0416 16.7907 43.7456 16.7907ZM61.8073 17.7667H60.3673L59.9833 13.7827C59.9406 13.3667 59.9139 12.908 59.9033 12.4067C59.8926 11.8947 59.8873 11.3453 59.8873 10.7587L57.9673 16.8387H56.5753L54.7833 10.7747C54.7833 12.1827 54.7619 13.18 54.7193 13.7667L54.4153 17.7667H52.9913L53.7433 9.33467H55.6473L57.2953 15.3667L59.1033 9.33467H61.0393L61.8073 17.7667ZM69.9656 15.7987C69.9656 16.14 70.0243 16.396 70.1416 16.5667C70.259 16.7267 70.435 16.8493 70.6696 16.9347L70.3336 17.9587C69.8963 17.9053 69.5443 17.7827 69.2776 17.5907C69.011 17.3987 68.8136 17.1 68.6856 16.6947C68.1203 17.5373 67.283 17.9587 66.1736 17.9587C65.3416 17.9587 64.6856 17.724 64.2056 17.2547C63.7256 16.7853 63.4856 16.172 63.4856 15.4147C63.4856 14.5187 63.8056 13.8307 64.4456 13.3507C65.0963 12.8707 66.0136 12.6307 67.1976 12.6307H68.4936V12.0067C68.4936 11.4093 68.3496 10.9827 68.0616 10.7267C67.7736 10.4707 67.331 10.3427 66.7336 10.3427C66.115 10.3427 65.3576 10.492 64.4616 10.7907L64.0936 9.71867C65.139 9.33467 66.1096 9.14267 67.0056 9.14267C67.9976 9.14267 68.739 9.388 69.2296 9.87867C69.7203 10.3587 69.9656 11.0467 69.9656 11.9427V15.7987ZM66.5096 16.8547C67.3523 16.8547 68.0136 16.4173 68.4936 15.5427V13.6067H67.3896C65.8323 13.6067 65.0536 14.1827 65.0536 15.3347C65.0536 15.836 65.1763 16.2147 65.4216 16.4707C65.667 16.7267 66.0296 16.8547 66.5096 16.8547ZM78.7648 9.33467V17.7667H77.2928V14.5347H75.4528L73.6768 17.7667H72.0288L74.0448 14.1987C73.0528 13.7293 72.5568 12.9667 72.5568 11.9107C72.5568 11.0787 72.8554 10.444 73.4528 10.0067C74.0501 9.55867 74.8874 9.33467 75.9648 9.33467H78.7648ZM77.2928 13.4147V10.4707H75.9328C75.3248 10.4707 74.8661 10.588 74.5568 10.8227C74.2581 11.0467 74.1088 11.4093 74.1088 11.9107C74.1088 12.444 74.2474 12.828 74.5248 13.0627C74.8128 13.2973 75.2714 13.4147 75.9008 13.4147H77.2928ZM88.1636 6.90267C88.8036 6.90267 89.3636 7.03067 89.8436 7.28667C90.3343 7.54267 90.713 7.89467 90.9796 8.34267C91.2463 8.78 91.3796 9.276 91.3796 9.83067C91.3796 10.4813 91.2303 11.1053 90.9316 11.7027C90.6436 12.3 90.1956 12.9453 89.5876 13.6387C88.9796 14.332 88.057 15.2973 86.8196 16.5347H91.6356L91.4596 17.7667H85.1396V16.5987C86.569 15.116 87.5823 14.0333 88.1796 13.3507C88.777 12.6573 89.2036 12.0547 89.4596 11.5427C89.7156 11.0307 89.8436 10.4813 89.8436 9.89467C89.8436 9.34 89.6836 8.908 89.3636 8.59867C89.0436 8.27867 88.617 8.11867 88.0836 8.11867C87.6463 8.11867 87.2623 8.20933 86.9316 8.39067C86.601 8.572 86.249 8.87067 85.8756 9.28667L84.9156 8.51867C85.353 7.97467 85.8383 7.56933 86.3716 7.30267C86.905 7.036 87.5023 6.90267 88.1636 6.90267ZM96.9015 6.90267C98.0855 6.90267 98.9762 7.37733 99.5735 8.32667C100.182 9.26533 100.486 10.6307 100.486 12.4227C100.486 14.2147 100.182 15.5853 99.5735 16.5347C98.9762 17.484 98.0855 17.9587 96.9015 17.9587C95.7175 17.9587 94.8215 17.484 94.2135 16.5347C93.6162 15.5853 93.3175 14.2147 93.3175 12.4227C93.3175 10.6307 93.6162 9.26533 94.2135 8.32667C94.8215 7.37733 95.7175 6.90267 96.9015 6.90267ZM96.9015 8.07067C96.2082 8.07067 95.6908 8.412 95.3495 9.09467C95.0188 9.77733 94.8535 10.8867 94.8535 12.4227C94.8535 13.9587 95.0188 15.0733 95.3495 15.7667C95.6908 16.4493 96.2082 16.7907 96.9015 16.7907C97.5842 16.7907 98.0962 16.4493 98.4375 15.7667C98.7788 15.0733 98.9495 13.9587 98.9495 12.4227C98.9495 10.8973 98.7788 9.79333 98.4375 9.11067C98.0962 8.41733 97.5842 8.07067 96.9015 8.07067ZM104.82 6.90267C105.46 6.90267 106.02 7.03067 106.5 7.28667C106.991 7.54267 107.369 7.89467 107.636 8.34267C107.903 8.78 108.036 9.276 108.036 9.83067C108.036 10.4813 107.887 11.1053 107.588 11.7027C107.3 12.3 106.852 12.9453 106.244 13.6387C105.636 14.332 104.713 15.2973 103.476 16.5347H108.292L108.116 17.7667H101.796V16.5987C103.225 15.116 104.239 14.0333 104.836 13.3507C105.433 12.6573 105.86 12.0547 106.116 11.5427C106.372 11.0307 106.5 10.4813 106.5 9.89467C106.5 9.34 106.34 8.908 106.02 8.59867C105.7 8.27867 105.273 8.11867 104.74 8.11867C104.303 8.11867 103.919 8.20933 103.588 8.39067C103.257 8.572 102.905 8.87067 102.532 9.28667L101.572 8.51867C102.009 7.97467 102.495 7.56933 103.028 7.30267C103.561 7.036 104.159 6.90267 104.82 6.90267ZM112.616 6.90267C113.277 6.90267 113.842 7.02533 114.312 7.27067C114.792 7.516 115.154 7.84667 115.4 8.26267C115.656 8.67867 115.784 9.132 115.784 9.62267C115.784 10.2733 115.592 10.812 115.208 11.2387C114.834 11.6547 114.333 11.9373 113.704 12.0867C114.418 12.1507 115 12.4067 115.448 12.8547C115.896 13.3027 116.12 13.9107 116.12 14.6787C116.12 15.2973 115.97 15.8573 115.672 16.3587C115.373 16.86 114.946 17.2547 114.392 17.5427C113.837 17.82 113.197 17.9587 112.472 17.9587C111.821 17.9587 111.224 17.8413 110.68 17.6067C110.136 17.3613 109.661 16.9987 109.256 16.5187L110.136 15.7027C110.488 16.0653 110.845 16.332 111.208 16.5027C111.581 16.6733 111.986 16.7587 112.424 16.7587C113.096 16.7587 113.624 16.572 114.008 16.1987C114.392 15.8147 114.584 15.3027 114.584 14.6627C114.584 13.9587 114.402 13.4627 114.04 13.1747C113.677 12.8867 113.149 12.7427 112.456 12.7427H111.656L111.832 11.6067H112.376C112.93 11.6067 113.389 11.4413 113.752 11.1107C114.125 10.78 114.312 10.316 114.312 9.71867C114.312 9.21733 114.152 8.82267 113.832 8.53467C113.512 8.236 113.08 8.08667 112.536 8.08667C112.12 8.08667 111.736 8.16133 111.384 8.31067C111.042 8.46 110.69 8.70533 110.328 9.04667L109.56 8.16667C110.466 7.324 111.485 6.90267 112.616 6.90267Z" fill="#AFB2BF"/>
</svg>
